<svg xmlns="http://www.w3.org/2000/svg" width="50.722" height="17.357" viewBox="0 0 50.722 17.357">
  <g id="Group_273" data-name="Group 273" transform="translate(-221.463 -14.723)">
    <path id="Path_11" data-name="Path 11" d="M233.586,25.559a4.857,4.857,0,0,1,1.532.766,2.663,2.663,0,0,1,1.013,2.23c-.03.27-.135.834-.135.834h-4.617a1.2,1.2,0,0,0-.023-.608,1.411,1.411,0,0,0-.469-.475,1.7,1.7,0,0,0-.852-.267,2.348,2.348,0,0,0-.886.111,1.26,1.26,0,0,0-.877.854c-.025.313.014.426.122.535a1.827,1.827,0,0,0,.909.364c.931.186,1.76.362,1.76.362s.979.225,1.487.363a4.707,4.707,0,0,1,1.239.54,3.138,3.138,0,0,1,.811.7,2.192,2.192,0,0,1,.454.979,2.242,2.242,0,0,1,.011.835,3.833,3.833,0,0,1-.263,1.046,4.517,4.517,0,0,1-.473,1.014,6.344,6.344,0,0,1-.8,1.036,7.866,7.866,0,0,1-.887.755,7.338,7.338,0,0,1-1.4.756,11.9,11.9,0,0,1-1.459.457,15.915,15.915,0,0,1-1.73.257,18.126,18.126,0,0,1-2.263-.04,9.468,9.468,0,0,1-1.554-.293,8.31,8.31,0,0,1-1.284-.563,4.117,4.117,0,0,1-.923-.811,2.7,2.7,0,0,1-.46-.8,2.882,2.882,0,0,1-.109-.846c0-.317.14-1.284.14-1.284h4.82a1.671,1.671,0,0,0-.045.406,1.139,1.139,0,0,0,.138.523.917.917,0,0,0,.609.51,2.5,2.5,0,0,0,.56.093,3.513,3.513,0,0,0,.811-.045,2.444,2.444,0,0,0,.608-.18,2.113,2.113,0,0,0,.608-.451c.149-.216.312-.5.225-.721s-.062-.164-.234-.339a.985.985,0,0,0-.5-.275,7.67,7.67,0,0,0-1.048-.25c-.335-.059-1.712-.36-1.46-.285a13.766,13.766,0,0,1-1.509-.45,3.737,3.737,0,0,1-1.126-.654,2.749,2.749,0,0,1-.646-.749,1.639,1.639,0,0,1-.233-.865,4.727,4.727,0,0,1,.091-.891,5,5,0,0,1,.314-.986,5.988,5.988,0,0,1,.518-.879,10.224,10.224,0,0,1,.795-.851,7.764,7.764,0,0,1,1.075-.725,8.273,8.273,0,0,1,1.306-.54,9.036,9.036,0,0,1,2.823-.52,14.4,14.4,0,0,1,1.831.034,15.979,15.979,0,0,1,1.653.283" transform="translate(0 -7.004)" fill="#fff"/>
    <path id="Path_12" data-name="Path 12" d="M305.816,31.665l5.1.028,4.769-16.971h-5.1Z" transform="translate(-56.238)" fill="#fff"/>
    <path id="Path_13" data-name="Path 13" d="M274.484,31.026a6.114,6.114,0,0,1-.147.809,7.144,7.144,0,0,1-.3.894c-.108.259-.333.72-.4.835s-.246.394-.378.577a2.571,2.571,0,0,1-.3.359,3.759,3.759,0,0,1-.595.505,1.721,1.721,0,0,1-.529.27,2.007,2.007,0,0,1-.418.075,1.773,1.773,0,0,1-.422,0,1.826,1.826,0,0,1-.418-.108.933.933,0,0,1-.351-.191,1.36,1.36,0,0,1-.292-.332,1.509,1.509,0,0,1-.233-.632c-.031-.165-.047-.439-.047-.439a4.506,4.506,0,0,1,.022-.586,6.333,6.333,0,0,1,.122-.647,5.528,5.528,0,0,1,.186-.617c.037-.109.127-.361.224-.576a5.66,5.66,0,0,1,.458-.84,4.49,4.49,0,0,1,.452-.6,2.815,2.815,0,0,1,.528-.5,2.064,2.064,0,0,1,.454-.276,2.219,2.219,0,0,1,.4-.127,2.806,2.806,0,0,1,.329-.052,2.157,2.157,0,0,1,.377.021,1.613,1.613,0,0,1,.753.336,1.946,1.946,0,0,1,.478.835,2.219,2.219,0,0,1,.076.564,3.122,3.122,0,0,1-.024.442m5.14-1.984a3.905,3.905,0,0,0-.19-.893,3.372,3.372,0,0,0-.607-1.1,5.543,5.543,0,0,0-2.137-1.5,8.79,8.79,0,0,0-2.76-.4,12.393,12.393,0,0,0-1.292.1c-.367.048-1.085.223-1.085.223a10.342,10.342,0,0,0-1.276.4,7.112,7.112,0,0,0-1.372.717,7.308,7.308,0,0,0-1.483,1.2,9.858,9.858,0,0,0-2.2,3.206,9.717,9.717,0,0,0-.406,1.238,6.917,6.917,0,0,0-.248,1.3,7.625,7.625,0,0,0-.016,1.34,5.809,5.809,0,0,0,.287,1.181,6.614,6.614,0,0,0,.431.861,3.365,3.365,0,0,0,1.181,1.181,5.164,5.164,0,0,0,1.2.558,4.881,4.881,0,0,0,1.308.255,10.42,10.42,0,0,0,1.483.064,10.149,10.149,0,0,0,1.436-.144,10.541,10.541,0,0,0,1.372-.3,6.836,6.836,0,0,0,1.627-.734,10.268,10.268,0,0,0,1.707-1.228,5.563,5.563,0,0,0,.814-.83c.335-.415.766-1.036.925-1.292a15.941,15.941,0,0,0,.846-1.818,9.165,9.165,0,0,0,.462-1.9,7.3,7.3,0,0,0,0-1.675" transform="translate(-28.712 -6.952)" fill="#fff"/>
    <path id="Path_14" data-name="Path 14" d="M338.146,31.15a5.979,5.979,0,0,1-.146.81,7.212,7.212,0,0,1-.3.894c-.108.259-.333.721-.4.836s-.245.394-.377.577a2.6,2.6,0,0,1-.305.359,3.756,3.756,0,0,1-.595.5,1.693,1.693,0,0,1-.529.271,2,2,0,0,1-.418.075,1.806,1.806,0,0,1-.422,0,1.784,1.784,0,0,1-.418-.108.933.933,0,0,1-.351-.191,1.343,1.343,0,0,1-.292-.332,1.491,1.491,0,0,1-.233-.632,4.321,4.321,0,0,1-.047-.439,4.6,4.6,0,0,1,.022-.586,6.168,6.168,0,0,1,.122-.647,5.53,5.53,0,0,1,.184-.614c.037-.107.128-.362.225-.578a5.556,5.556,0,0,1,.459-.841,4.4,4.4,0,0,1,.452-.6,2.813,2.813,0,0,1,.528-.5,2.027,2.027,0,0,1,.455-.276,2.206,2.206,0,0,1,.4-.127,2.789,2.789,0,0,1,.329-.051,2.125,2.125,0,0,1,.377.02,1.627,1.627,0,0,1,.752.336,1.949,1.949,0,0,1,.478.836,2.175,2.175,0,0,1,.077.564,3.015,3.015,0,0,1-.025.442m5.156-1.921a3.926,3.926,0,0,0-.191-.892,3.375,3.375,0,0,0-.608-1.1,5.536,5.536,0,0,0-2.137-1.5,8.811,8.811,0,0,0-2.76-.4,12.359,12.359,0,0,0-1.291.1c-.367.048-1.085.223-1.085.223a10.454,10.454,0,0,0-1.275.4,7.128,7.128,0,0,0-1.372.718,8.5,8.5,0,0,0-1.483,1.2,8.808,8.808,0,0,0-1.165,1.356,8.7,8.7,0,0,0-1.036,1.85,9.5,9.5,0,0,0-.407,1.237,6.911,6.911,0,0,0-.248,1.3,7.632,7.632,0,0,0-.017,1.34,5.753,5.753,0,0,0,.288,1.18,6.559,6.559,0,0,0,.43.862,3.351,3.351,0,0,0,1.18,1.18,5.151,5.151,0,0,0,1.2.559,4.891,4.891,0,0,0,1.308.255,10.5,10.5,0,0,0,1.483.064,10.142,10.142,0,0,0,1.436-.144,10.345,10.345,0,0,0,1.371-.3,6.837,6.837,0,0,0,1.627-.734,10.26,10.26,0,0,0,1.707-1.228,5.5,5.5,0,0,0,.814-.829c.334-.416.766-1.036.925-1.292a15.773,15.773,0,0,0,.846-1.819,9.228,9.228,0,0,0,.463-1.9,7.335,7.335,0,0,0,0-1.675" transform="translate(-71.165 -7.076)" fill="#fff"/>
    <path id="Path_15" data-name="Path 15" d="M366.945,21.914a1.02,1.02,0,0,1,0-2.04h.016a1,1,0,0,1,1.035.995A1.042,1.042,0,0,1,366.945,21.914Zm0-1.954a.934.934,0,1,0,0,1.869.957.957,0,0,0,.968-.956.919.919,0,0,0-.95-.913h-.015Z" transform="translate(-96.313 -3.435)" fill="#fff"/>
    <path id="Path_16" data-name="Path 16" d="M367.819,21.557H368a.927.927,0,0,0,.219-.015.139.139,0,0,0,.069-.051.161.161,0,0,0,.024-.091.144.144,0,0,0-.033-.1.147.147,0,0,0-.091-.048c-.02,0-.079,0-.178,0h-.191v.308m-.243.7V21.044h.513a.893.893,0,0,1,.282.032.282.282,0,0,1,.14.116.352.352,0,0,1,.053.191.325.325,0,0,1-.081.225.381.381,0,0,1-.239.112.56.56,0,0,1,.13.1,1.353,1.353,0,0,1,.139.2l.148.236h-.292l-.175-.263a1.641,1.641,0,0,0-.128-.177.2.2,0,0,0-.074-.05.416.416,0,0,0-.123-.014h-.05v.5Z" transform="translate(-97.413 -4.215)" fill="#fff"/>
  </g>
</svg>
