<svg xmlns="http://www.w3.org/2000/svg" width="27" height="27" viewBox="0 0 27 27">
  <g id="Group_267" data-name="Group 267" transform="translate(0.252 0)">
    <circle id="Ellipse_242" data-name="Ellipse 242" cx="13.5" cy="13.5" r="13.5" transform="translate(-0.252 0)" fill="#fff"/>
    <path id="Path_2" data-name="Path 2" d="M19.669,14.38l-.067-.133c-.186-.44-2.478-1.106-2.664-1.119l-.147.013c-.28.053-.586.306-1.185.826a.362.362,0,0,1-.426.053,10.46,10.46,0,0,1-2.224-1.851,8.366,8.366,0,0,1-1.439-2.278.4.4,0,0,1,.107-.413c.679-.613.972-.906,1-1.225.013-.186-.386-2.544-.8-2.771L11.7,5.4A1.51,1.51,0,0,0,10.6,5.07a1.222,1.222,0,0,0-.306.12A4,4,0,0,0,8.933,6.535a9.466,9.466,0,0,0,2.5,7.313A8.657,8.657,0,0,0,18.137,17h.013l.04-.013A3.941,3.941,0,0,0,19.7,15.806,1.279,1.279,0,0,0,19.669,14.38Z" transform="translate(-0.995 2.629)" fill="#f73429"/>
  </g>
</svg>
