<svg xmlns="http://www.w3.org/2000/svg" width="21" height="21" viewBox="0 0 21 21">
  <g id="Group_278" data-name="Group 278" transform="translate(0.252 0)">
    <circle id="Ellipse_242" data-name="Ellipse 242" cx="10.5" cy="10.5" r="10.5" transform="translate(-0.252 0)" fill="#fff"/>
    <path id="Path_2" data-name="Path 2" d="M17.256,12.3l-.052-.1c-.145-.342-1.925-.859-2.07-.869l-.114.01c-.217.041-.455.238-.921.642a.281.281,0,0,1-.331.041,8.128,8.128,0,0,1-1.728-1.439,6.5,6.5,0,0,1-1.118-1.77A.31.31,0,0,1,11,8.491c.528-.476.756-.7.776-.952.01-.145-.3-1.977-.621-2.153l-.093-.062a1.173,1.173,0,0,0-.859-.259.949.949,0,0,0-.238.093A3.108,3.108,0,0,0,8.914,6.2a7.356,7.356,0,0,0,1.946,5.682,6.727,6.727,0,0,0,5.206,2.453h.01l.031-.01a3.062,3.062,0,0,0,1.17-.921A.994.994,0,0,0,17.256,12.3Z" transform="translate(-2.801 0.917)" fill="#7f0057"/>
  </g>
</svg>
