<svg xmlns="http://www.w3.org/2000/svg" xmlns:xlink="http://www.w3.org/1999/xlink" width="30.815" height="21.478" viewBox="0 0 30.815 21.478">
  <defs>
    <clipPath id="clip-path">
      <rect id="Rectangle_94" data-name="Rectangle 94" width="30.815" height="21.478" fill="#fff"/>
    </clipPath>
  </defs>
  <g id="Group_184" data-name="Group 184" clip-path="url(#clip-path)">
    <path id="Path_260" data-name="Path 260" d="M30.282,3.454A3.894,3.894,0,0,0,26.951.426,103.539,103.539,0,0,0,15.412,0,103.556,103.556,0,0,0,3.872.426,3.893,3.893,0,0,0,.543,3.454,33,33,0,0,0,0,10.738a32.989,32.989,0,0,0,.537,7.284,3.892,3.892,0,0,0,3.33,3.028,103.542,103.542,0,0,0,11.539.427,103.522,103.522,0,0,0,11.539-.427,3.894,3.894,0,0,0,3.331-3.028,32.974,32.974,0,0,0,.539-7.284,33,33,0,0,0-.532-7.284M11.431,15.521V5.331l9.8,5.111-9.8,5.08" transform="translate(0 0.001)" fill="#fff"/>
  </g>
</svg>
