<svg xmlns="http://www.w3.org/2000/svg" xmlns:xlink="http://www.w3.org/1999/xlink" width="70" height="70" viewBox="0 0 70 70">
  <defs>
    <clipPath id="clip-path">
      <rect id="Rectangle_30" data-name="Rectangle 30" width="70" height="70" transform="translate(0)" fill="none"/>
    </clipPath>
    <clipPath id="clip-path-2">
      <rect id="Rectangle_94" data-name="Rectangle 94" width="37.549" height="26.172" fill="#333"/>
    </clipPath>
  </defs>
  <g id="Group_284" data-name="Group 284" transform="translate(-1088 -9837)">
    <g id="Group_193" data-name="Group 193" transform="translate(774 8771)">
      <g id="Group_91" data-name="Group 91" transform="translate(-1066 195)">
        <g id="Group_49" data-name="Group 49" transform="translate(1380 871)" clip-path="url(#clip-path)">
          <ellipse id="Ellipse_21" data-name="Ellipse 21" cx="34.266" cy="34.135" rx="34.266" ry="34.135" transform="translate(0.734 0.865)" fill="none" stroke="#271f20" stroke-width="2"/>
        </g>
        <g id="Group_220" data-name="Group 220" transform="translate(1396.633 892.729)">
          <g id="Group_184" data-name="Group 184" transform="translate(0 0)" clip-path="url(#clip-path-2)">
            <path id="Path_260" data-name="Path 260" d="M36.9,4.209A4.745,4.745,0,0,0,32.841.519,126.166,126.166,0,0,0,18.78,0,126.187,126.187,0,0,0,4.719.519,4.743,4.743,0,0,0,.662,4.209,40.212,40.212,0,0,0,0,13.085a40.2,40.2,0,0,0,.654,8.875,4.743,4.743,0,0,0,4.058,3.69,126.17,126.17,0,0,0,14.061.52,126.146,126.146,0,0,0,14.06-.52,4.745,4.745,0,0,0,4.059-3.69,40.18,40.18,0,0,0,.657-8.875A40.207,40.207,0,0,0,36.9,4.209m-22.971,14.7V6.5l11.937,6.228-11.937,6.19" transform="translate(0 0.001)" fill="#333"/>
          </g>
        </g>
      </g>
    </g>
  </g>
</svg>
