<svg xmlns="http://www.w3.org/2000/svg" xmlns:xlink="http://www.w3.org/1999/xlink" width="70" height="70" viewBox="0 0 70 70">
  <defs>
    <clipPath id="clip-path">
      <rect id="Rectangle_30" data-name="Rectangle 30" width="70" height="70" transform="translate(0)" fill="none"/>
    </clipPath>
    <clipPath id="clip-path-2">
      <rect id="Rectangle_95" data-name="Rectangle 95" width="32.608" height="32.608" fill="#333"/>
    </clipPath>
  </defs>
  <g id="Group_287" data-name="Group 287" transform="translate(-927 -9837)">
    <g id="Group_192" data-name="Group 192" transform="translate(613 8771)">
      <g id="Group_91" data-name="Group 91" transform="translate(-1066 195)">
        <g id="Group_49" data-name="Group 49" transform="translate(1380 871)" clip-path="url(#clip-path)">
          <ellipse id="Ellipse_21" data-name="Ellipse 21" cx="34.266" cy="34.135" rx="34.266" ry="34.135" transform="translate(0.734 0.865)" fill="none" stroke="#271f20" stroke-width="2"/>
        </g>
      </g>
    </g>
    <g id="Group_219" data-name="Group 219" transform="translate(946.246 9855.575)">
      <g id="Group_186" data-name="Group 186" transform="translate(0 0)" clip-path="url(#clip-path-2)">
        <path id="Path_261" data-name="Path 261" d="M4.185,0H28.423a4.086,4.086,0,0,1,4.185,4.185V28.423a4.086,4.086,0,0,1-4.185,4.185H4.185A4.086,4.086,0,0,1,0,28.423V4.185A4.086,4.086,0,0,1,4.185,0M23.754,3.623a1.472,1.472,0,0,0-1.467,1.468V8.6a1.472,1.472,0,0,0,1.467,1.468h3.686A1.472,1.472,0,0,0,28.908,8.6V5.091a1.472,1.472,0,0,0-1.468-1.468ZM28.923,13.79h-2.87a9.537,9.537,0,0,1,.419,2.8,9.982,9.982,0,0,1-10.136,9.821A9.982,9.982,0,0,1,6.2,16.587a9.521,9.521,0,0,1,.419-2.8H3.624V27.564a1.3,1.3,0,0,0,1.3,1.3H27.627a1.3,1.3,0,0,0,1.3-1.3V13.79Zm-12.588-3.9a6.45,6.45,0,0,0-6.549,6.346,6.45,6.45,0,0,0,6.549,6.346,6.45,6.45,0,0,0,6.549-6.346,6.45,6.45,0,0,0-6.549-6.346" transform="translate(0 0)" fill="#333"/>
      </g>
    </g>
  </g>
</svg>
